<svg width="135" height="24" viewBox="0 0 135 24" fill="none" xmlns="http://www.w3.org/2000/svg">
<path d="M6.06769 21L7.7604 13.975L2.08331 9.25L9.58331 8.625L12.5 2L15.4166 8.625L22.9166 9.25L17.2396 13.975L18.9323 21L12.5 17.275L6.06769 21Z" fill="#FF9C2F"/>
<path d="M33.825 21L35.45 13.975L30 9.25L37.2 8.625L40 2L42.8 8.625L50 9.25L44.55 13.975L46.175 21L40 17.275L33.825 21Z" fill="#FF9C2F"/>
<path d="M60.825 21L62.45 13.975L57 9.25L64.2 8.625L67 2L69.8 8.625L77 9.25L71.55 13.975L73.175 21L67 17.275L60.825 21Z" fill="#FF9C2F"/>
<path d="M88.0677 21L89.7605 13.975L84.0834 9.25L91.5834 8.625L94.5 2L97.4167 8.625L104.917 9.25L99.2396 13.975L100.932 21L94.5 17.275L88.0677 21Z" fill="#FF9C2F"/>
<path d="M116.068 21L117.76 13.975L112.083 9.25L119.583 8.625L122.5 2L125.417 8.625L132.917 9.25L127.24 13.975L128.932 21L122.5 17.275L116.068 21Z" fill="#FF9C2F"/>
</svg>
